<?xml version="1.0" standalone="no"?>
<!DOCTYPE svg PUBLIC "-//W3C//DTD SVG 20010904//EN"
 "http://www.w3.org/TR/2001/REC-SVG-20010904/DTD/svg10.dtd">
<svg version="1.0" xmlns="http://www.w3.org/2000/svg"
 width="100.000000pt" height="100.000000pt" viewBox="0 0 100.000000 100.000000"
 preserveAspectRatio="xMidYMid meet">

<g transform="translate(0.000000,100.000000) scale(0.100000,-0.100000)"
fill="#e95687" stroke="none">
<path d="M446 859 c-33 -39 -34 -82 -1 -114 49 -50 135 -15 135 54 0 41 -44
91 -80 91 -19 0 -36 -10 -54 -31z"/>
<path d="M151 744 c-48 -61 -10 -144 67 -144 50 0 82 32 82 82 0 75 -105 118
-149 62z"/>
<path d="M731 744 c-63 -52 -29 -144 53 -144 75 0 113 83 65 144 -28 35 -76
35 -118 0z"/>
<path d="M449 609 c-86 -13 -151 -65 -189 -151 -33 -75 -36 -126 -10 -186 26
-61 100 -134 156 -153 50 -17 138 -17 188 0 95 33 184 161 172 248 -23 168
-153 268 -317 242z"/>
</g>
</svg>
